<svg version="1.1" id="Layer_1" xmlns="http://www.w3.org/2000/svg" xmlns:xlink="http://www.w3.org/1999/xlink" x="0px" y="0px"
	 width="100%" viewBox="0 0 400 400" enable-background="new 0 0 400 400" xml:space="preserve">
<path fill="#000000" opacity="1.000000" stroke="none" 
	d="
M181.131683,280.635193 
	C173.758255,279.512115 168.430435,283.959747 162.532349,286.343323 
	C148.553009,291.992737 134.390289,296.419556 119.065758,295.360901 
	C103.047516,294.254303 88.648544,289.007050 76.370186,278.433716 
	C58.330395,262.898987 49.709061,242.624817 46.613235,219.527359 
	C43.664345,197.526123 45.007385,175.941055 52.460564,154.881409 
	C57.173615,141.564270 63.930542,129.331848 73.743652,119.237625 
	C88.979347,103.565506 107.437096,95.259628 129.784119,97.712326 
	C136.339081,98.431763 141.971725,101.868134 147.875320,104.464401 
	C152.437180,106.470612 156.590073,109.337242 161.407150,110.814064 
	C167.769882,112.764763 169.909668,111.819542 171.662277,105.568268 
	C172.480667,102.649170 174.423798,102.676018 176.654022,102.736740 
	C179.329163,102.809563 179.321854,104.754562 179.323318,106.624405 
	C179.336792,123.786621 179.336197,140.948853 179.326340,158.111084 
	C179.325165,160.152588 179.399200,162.251755 176.414764,162.307281 
	C173.952225,162.353104 172.119858,162.342072 171.515015,158.967407 
	C169.996384,150.494690 168.134155,142.028961 164.486130,134.169601 
	C159.656677,123.765007 153.666138,113.871986 142.459518,109.542290 
	C124.009880,102.414253 105.901421,109.882896 96.688599,127.510544 
	C89.735397,140.814667 86.531532,155.080673 85.276176,169.949448 
	C84.256737,182.024078 83.019783,194.090256 83.398170,206.210144 
	C83.975151,224.691162 86.336334,242.982285 93.714012,260.074768 
	C98.840103,271.950775 106.535042,282.078918 120.224770,285.036987 
	C134.860291,288.199432 153.476303,279.415955 155.679413,261.362152 
	C157.765610,244.266602 156.103134,227.114212 156.655060,209.997849 
	C156.736862,207.461090 155.498123,206.360504 153.021454,206.386002 
	C150.022781,206.416885 147.022675,206.405212 144.024445,206.347198 
	C142.041779,206.308838 139.809448,206.548798 139.780777,203.514984 
	C139.751633,200.433655 142.016037,200.690155 143.985077,200.686584 
	C160.147552,200.657333 176.310104,200.662582 192.472626,200.660889 
	C196.471542,200.660477 200.470566,200.658920 204.469345,200.685577 
	C206.377823,200.698288 208.211014,200.795807 208.242920,203.471649 
	C208.274475,206.116013 206.544785,206.350815 204.572479,206.354752 
	C202.239792,206.359406 199.882874,206.579025 197.579514,206.321014 
	C192.863617,205.792740 191.201614,207.489288 191.248154,212.422104 
	C191.474533,236.413849 191.361206,260.408936 191.326569,284.402740 
	C191.323761,286.348999 191.767548,288.377991 190.565353,290.612152 
	C186.409042,288.270233 186.430649,282.105438 181.131683,280.635193 
z"/>
<path fill="#000000" opacity="1.000000" stroke="none" 
	d="
M342.000854,275.065613 
	C348.687653,266.795502 350.509827,257.158844 351.550842,247.387253 
	C352.128632,241.963852 353.155914,236.536148 352.729034,231.016983 
	C352.584656,229.150665 353.227417,227.777634 355.487640,227.756760 
	C357.747437,227.735901 358.307281,229.061356 358.307190,230.962418 
	C358.306366,250.284836 358.292480,269.607300 358.327881,288.929657 
	C358.332703,291.562958 357.005280,292.401459 354.597748,292.371521 
	C350.101013,292.315582 345.603027,292.363068 341.105560,292.363251 
	C301.793854,292.365051 262.482147,292.367249 223.170441,292.362274 
	C221.505966,292.362061 219.839569,292.330170 218.177521,292.245483 
	C216.221497,292.145844 215.750473,290.868011 215.802307,289.159302 
	C215.853348,287.476807 216.792892,286.778259 218.345154,286.752777 
	C221.508881,286.700836 224.701935,286.402161 227.830521,286.720276 
	C232.489120,287.193939 233.763947,285.392334 233.746277,280.805695 
	C233.585876,239.162552 233.651337,197.518509 233.650345,155.874741 
	C233.649979,140.716400 233.530411,125.556534 233.727554,110.400780 
	C233.779419,106.413727 232.483688,104.954086 228.553421,105.309052 
	C225.745453,105.562645 222.894455,105.321548 220.062851,105.337494 
	C217.721237,105.350685 215.773041,105.123039 215.719452,101.972603 
	C215.663712,98.696350 217.759811,98.669640 220.030090,98.668327 
	C233.689224,98.660439 247.348373,98.651321 261.007507,98.649315 
	C268.336792,98.648239 275.666077,98.667488 282.995361,98.662682 
	C285.294342,98.661179 287.304657,98.740005 287.321777,101.973541 
	C287.338684,105.173767 285.420654,105.368233 283.065643,105.347015 
	C279.567902,105.315498 276.048248,105.591660 272.576965,105.289085 
	C268.272003,104.913818 267.119720,106.766930 267.280640,110.783028 
	C267.540466,117.269028 267.348999,123.773087 267.348999,130.269516 
	C267.348907,179.908890 267.348114,229.548279 267.350128,279.187653 
	C267.350433,286.655670 267.356812,286.670044 275.043823,286.651794 
	C289.505035,286.617401 303.985138,287.069458 318.403351,285.605469 
	C327.250641,284.707153 335.776489,282.822266 342.000854,275.065613 
z"/>
</svg>